<?xml version="1.0" encoding="UTF-8" standalone="no"?>
<svg
   width="512"
   height="512"
   viewBox="0 0 512 512"
   version="1.1"
   id="svg7"
   sodipodi:docname="avatar-cerberus.svg"
   inkscape:version="1.3 (0e150ed6c4, 2023-07-21)"
   xmlns:inkscape="http://www.inkscape.org/namespaces/inkscape"
   xmlns:sodipodi="http://sodipodi.sourceforge.net/DTD/sodipodi-0.dtd"
   xmlns="http://www.w3.org/2000/svg"
   xmlns:svg="http://www.w3.org/2000/svg">
  <sodipodi:namedview
     id="namedview7"
     pagecolor="#ffffff"
     bordercolor="#000000"
     borderopacity="0.25"
     inkscape:showpageshadow="2"
     inkscape:pageopacity="0.0"
     inkscape:pagecheckerboard="0"
     inkscape:deskcolor="#d1d1d1"
     inkscape:zoom="2.1621094"
     inkscape:cx="256"
     inkscape:cy="256"
     inkscape:window-width="3200"
     inkscape:window-height="1321"
     inkscape:window-x="-9"
     inkscape:window-y="-9"
     inkscape:window-maximized="1"
     inkscape:current-layer="svg7" />
  <defs
     id="defs2">
    <linearGradient
       id="av"
       x1="0"
       x2="1">
      <stop
         offset="0"
         stop-color="#40E0D0"
         id="stop1" />
      <stop
         offset="1"
         stop-color="#60A5FA"
         id="stop2" />
    </linearGradient>
  </defs>
  <rect
     width="100%"
     height="100%"
     fill="#081426"
     id="rect2" />
  <path
     id="path17"
     style="fill:#48d1da;fill-opacity:1;stroke-width:3.43014"
     d="m 238.02202,30.822038 c -2.40389,0 -22.77044,39.958895 -30.98537,60.791592 l -5.49361,13.92165 -11.08773,10.11631 c -9.96898,9.09021 -19.3653,18.9864 -20.27282,21.35142 -0.18631,0.48552 1.27313,3.79555 3.24261,7.35608 3.30174,5.97032 9.07274,18.12716 11.97206,25.22376 0.7853,1.92218 2.96566,4.31134 6.22386,6.81345 21.02997,16.14918 32.54708,27.26869 40.49871,39.09848 4.70221,6.996 9.45385,15.5225 8.93718,16.03869 -0.13959,0.13958 -2.58012,-2.51073 -5.42661,-5.88888 -7.18817,-8.53075 -18.69234,-18.91525 -30.24842,-27.314 -9.30411,-6.76264 -23.14879,-15.28166 -24.84191,-15.28166 -0.43415,0 -2.34544,-3.44766 -4.24748,-7.65756 -4.27346,-9.4585 -11.6633,-21.93789 -17.99497,-30.4025 -5.04535,-6.74559 -16.64352,-18.81956 -21.04324,-21.90749 l -2.59942,-1.82898 -2.81379,6.17027 c -3.54581,7.78073 -9.02597,24.80813 -12.44776,38.6563 l -2.63961,10.67237 -4.62937,2.33816 c -7.36465,3.71763 -30.253195,16.66679 -36.043536,20.39338 -10.368629,6.67441 -14.375325,12.52759 -14.497791,21.15714 l -0.06695,4.70309 -11.302139,6.23727 C 37.913376,238.361 12.909379,252.7678 7.457463,256.22129 c -1.878034,1.18962 -3.398804,2.78302 -3.396653,3.55077 0.0078,2.05646 5.262985,11.97623 8.937157,16.86274 4.283452,5.6957 7.159519,7.35937 12.762659,7.36277 h 4.481988 l 2.72668,4.05327 c 1.707102,2.53482 4.681598,5.35171 7.938966,7.51684 4.635627,3.0813 11.400038,6.86035 12.280256,6.86035 0.178699,0 -0.160332,-2.09557 -0.750347,-4.6495 -0.590026,-2.55389 -1.170908,-6.78921 -1.293006,-9.41286 l -0.221207,-4.77005 9.613823,-4.95764 c 20.163017,-10.39498 35.177309,-13.36746 44.250431,-8.76972 3.79055,1.92084 11.6883,9.86736 10.96718,11.03411 -0.1829,0.29602 -2.94817,1.32478 -6.14352,2.29125 -10.131472,3.06445 -17.313822,6.77407 -29.297083,15.12756 -3.740791,2.60816 -4.666456,2.5653 -8.709389,-0.42208 -1.405042,-1.03834 -2.715152,-1.61865 -2.907575,-1.2863 -0.192344,0.33228 -0.594005,2.61231 -0.891046,5.06485 -0.701463,5.79421 -2.773293,9.1456 -6.404766,10.3441 -3.310221,1.09247 -3.253489,0.94563 -1.594482,4.15373 3.738331,7.229 12.336805,13.27012 20.011498,14.06229 4.235044,0.43712 4.238791,0.43449 11.998882,-5.28594 24.109521,-17.77279 42.251141,-20.93063 53.636501,-9.34583 9.1324,9.29231 15.42735,25.37598 18.39024,46.98385 0.47327,3.45161 1.20816,4.36916 11.89165,14.8998 25.03647,24.67688 44.29,39.82113 71.598,56.32968 6.54389,3.95594 12.45163,7.19856 13.13109,7.20202 2.94327,0.0184 28.06131,-15.91154 42.02619,-26.6508 12.61843,-9.70376 25.9782,-21.40528 40.7667,-35.72858 20.4937,-19.84891 26.18574,-23.09413 39.2794,-22.3631 12.30977,0.68727 25.66843,6.86804 40.58575,18.77883 4.07563,3.25417 8.28254,6.13616 9.35258,6.40473 6.79464,1.7053 18.36879,-3.38771 21.51225,-9.4664 1.18555,-2.29258 3.53732,-10.22034 3.53732,-11.92519 0,-0.42001 -1.34887,-0.0449 -2.9947,0.83741 -1.64588,0.88213 -4.32402,1.6079 -5.94919,1.6079 -3.1337,0 -4.47023,-0.88584 -12.75589,-8.4213 -2.46095,-2.23806 -7.58727,-6.18046 -11.38921,-8.76301 -3.80197,-2.58261 -6.7282,-4.99214 -6.50529,-5.35293 0.68996,-1.1164 8.45517,-3.10189 12.13289,-3.10189 9.22932,0 21.36246,4.10189 31.32037,10.58527 4.08558,2.66011 4.98363,3.61385 4.66284,4.9644 -0.81553,3.43329 -1.47741,9.28552 -1.05185,9.28552 0.24246,0 4.12367,-1.80314 8.62904,-4.00632 4.50529,-2.20324 8.80024,-4.0063 9.54014,-4.0063 0.73988,0 4.37406,-1.82174 8.07959,-4.04656 9.90773,-5.94828 15.52993,-11.76604 16.79578,-17.37859 0.57753,-2.56077 0.38996,-3.1114 -1.70839,-5.07154 -2.9503,-2.75602 -30.74609,-21.45145 -40.39819,-27.1733 -3.96576,-2.35089 -7.33602,-4.37003 -7.49009,-4.48868 -0.15405,-0.1186 0.12123,-1.4282 0.60964,-2.90764 1.36689,-4.1418 -0.64038,-9.84545 -4.91073,-13.96183 -3.29248,-3.17381 -24.23667,-20.08755 -32.0975,-25.92054 -2.07841,-1.54225 -3.92084,-3.52699 -4.09342,-4.40828 -0.17266,-0.88067 -0.89765,-6.01812 -1.6146,-11.41602 -0.71692,-5.39796 -2.58826,-14.05004 -4.1537,-19.22769 -2.84602,-9.41347 -9.44961,-23.41342 -11.3423,-24.03792 -2.29734,-0.75801 -29.06591,29.06585 -37.53752,41.82521 l -2.84732,4.28771 -6.54543,0.54937 c -21.77628,1.81185 -49.73665,9.82135 -63.83322,18.28975 l -4.40828,2.64631 -0.64316,5.15867 c -0.35465,2.83747 -0.46578,10.3474 -0.2477,16.68851 0.22803,6.62763 0.0965,11.22979 -0.30815,10.81976 -0.9007,-0.91277 -4.19988,-12.34282 -6.10328,-21.14374 -2.74159,-12.67556 -1.72887,-42.32249 1.60121,-46.87669 0.83333,-1.13973 1.92285,-1.18356 9.54011,-0.40867 9.51714,0.96809 18.99536,3.45685 29.14301,7.65758 7.66104,3.17135 11.32841,3.43676 17.1307,1.23273 8.53611,-3.24356 14.36986,-10.55739 15.65013,-19.61625 0.51588,-3.65025 0.44527,-3.8919 -0.95804,-3.2895 -0.83172,0.35706 -3.52504,1.20529 -5.9894,1.88257 l -4.48196,1.23271 -7.93895,-4.87725 c -13.17133,-8.0888 -25.35868,-13.4648 -34.18104,-15.08064 -1.65733,-0.30357 -3.21449,-0.87386 -3.45701,-1.26626 -0.24246,-0.39241 1.51382,-2.66599 3.89916,-5.05141 3.25409,-3.25413 5.39869,-4.65617 8.60222,-5.60752 5.33909,-1.58554 16.31608,-1.643 24.13846,-0.12726 6.56517,1.27155 19.77495,5.70595 21.27096,7.14169 0.92437,0.88715 0.47147,7.13811 -1.03839,14.35043 -0.25375,1.21181 -0.11441,2.20415 0.30803,2.20415 0.96883,0 8.27014,-4.42526 12.90335,-7.82506 2.46275,-1.80724 4.41267,-2.59272 6.4717,-2.59272 3.95351,0 9.12457,-3.51479 15.58987,-10.59868 8.87087,-9.71918 13.57181,-21.18847 10.80635,-26.35599 -1.1622,-2.17151 -3.63353,-3.15146 -33.18953,-13.111 -14.10056,-4.75077 -26.21992,-8.93488 -26.93215,-9.29894 -0.80753,-0.41271 -1.50566,-2.22813 -1.84907,-4.81696 -1.38394,-10.43263 -5.96124,-14.1754 -29.31048,-23.96425 -9.81223,-4.11362 -34.96663,-12.802808 -37.06183,-12.802808 -0.62925,0 -1.97907,-2.854759 -3.31629,-7.007743 C 262.47653,77.84281 257.27034,65.337834 251.71578,54.257035 245.84894,42.553629 238.99625,30.822064 238.022,30.822064 Z m 64.18827,15.730516 c -1.08879,0.148783 -3.26118,2.795404 -9.29227,10.712565 -11.15201,14.638909 -19.8227,29.131396 -18.24952,30.502962 0.32291,0.281614 4.69985,1.899632 9.7277,3.597656 5.02798,1.698077 12.42206,4.755309 16.42726,6.793331 4.00522,2.038052 7.548,3.766122 7.87868,3.838862 1.34657,0.29636 0.92448,-21.872587 -0.62976,-33.115813 -1.12415,-8.13223 -3.73616,-19.432425 -5.03131,-21.746709 -0.22488,-0.402057 -0.4679,-0.632448 -0.83078,-0.582854 z m -65.71578,24.332712 c 0.31124,0 0.76536,1.348946 1.01164,3.001391 2.30663,15.475668 2.87074,19.741853 3.22248,24.379604 l 0.40198,5.352959 -4.35469,2.45874 c -2.39742,1.35302 -4.73291,2.45871 -5.18543,2.45871 -0.48383,0 -0.66447,-1.23477 -0.4422,-3.00139 0.20782,-1.65247 0.57619,-5.16776 0.81737,-7.811674 0.7186,-7.876777 3.91881,-26.83834 4.52885,-26.83834 z m 41.2223,57.421734 4.37479,0.51589 c 9.84128,1.16379 25.62605,6.22472 30.02063,9.62051 1.53775,1.18825 1.41885,1.31632 -2.94783,3.25596 -5.84471,2.59618 -11.50167,3.27651 -14.67867,1.7687 -3.63934,-1.72714 -10.9778,-7.84825 -14.04224,-11.71748 z m -135.1297,24.97586 c 0.44796,0.29363 1.2009,1.85999 2.8339,5.33284 1.65764,3.5252 3.89373,9.82929 4.96437,14.01543 1.30162,5.08906 1.86806,9.2826 1.71508,12.64874 l -0.22778,5.03137 -5.40651,-5.45346 -5.4065,-5.45342 0.0937,-11.19492 c 0.0522,-6.15801 0.35698,-12.27811 0.67667,-13.60007 0.13987,-0.5788 0.25217,-1.00396 0.38856,-1.21932 0.10214,-0.16164 0.21912,-0.20519 0.36848,-0.10708 z m -31.97686,54.2194 c 0,1.025 -11.231792,16.1475 -12.943532,17.42545 -1.56831,1.17089 -3.92565,1.62559 -10.169929,1.96968 -5.335718,0.29397 -8.13323,0.16688 -8.13323,-0.37516 0,-1.92037 10.682021,-10.69078 16.326799,-13.4058 5.933632,-2.85431 14.919892,-6.23611 14.919892,-5.61417 z m 285.2797,17.21108 c 0.57951,0 0.68658,2.13275 0.34163,6.60573 -0.76673,9.94268 -1.87394,14.88029 -3.45024,15.34198 -2.60917,0.76576 -6.97596,1.20424 -7.91216,0.79722 -1.2477,-0.54239 2.69462,-9.83569 6.98088,-16.46746 1.75096,-2.70919 3.18233,-5.22848 3.18233,-5.60081 0,-0.37239 0.38665,-0.67666 0.85751,-0.67666 z m -220.67608,51.27159 c 0.8499,0 12.30902,16.38023 14.85285,21.23087 5.65145,10.77592 7.24425,17.03843 7.6911,30.24837 0.37498,11.08604 -0.0104,14.6855 -1.03176,9.61385 -3.24897,-16.14569 -7.46443,-28.70611 -16.40045,-48.87313 -2.97681,-6.71987 -5.27708,-12.21996 -5.11174,-12.21996 z m 236.55397,0.19445 c 0.20572,-0.0346 0.54948,0.0465 1.00493,0.17423 10.81855,3.03266 28.40185,16.5471 24.63419,18.93288 -1.44758,0.91671 -6.68349,0.78343 -10.65895,-0.26796 -4.23111,-1.11865 -8.99411,-6.07245 -12.78272,-13.3053 -2.23167,-4.26033 -2.81466,-5.42937 -2.19745,-5.53381 z m -68.81096,53.48907 c 0.25794,0 -5.15241,5.67515 -12.01895,12.61524 -6.86662,6.94015 -15.16994,15.87565 -18.45725,19.85742 -3.28723,3.98183 -6.96206,8.4896 -8.16005,10.01583 l -2.17733,2.77359 1.48057,-4.44167 c 3.34251,-10.04929 9.01499,-18.04859 18.99991,-26.77805 5.94185,-5.1946 18.75596,-14.0422 20.3331,-14.0422 z m 240.15836,148.34791 c -0.0674,0.68555 -0.31696,1.35319 -0.67672,1.98973 1.1411,-0.31315 1.83676,-0.51349 2.20419,-0.61636 -0.52949,-0.43832 -0.95711,-0.98565 -1.52747,-1.37337 z M 85.017977,535.37757 c 0.328267,0.0273 0.656646,0.0524 0.984858,0.0802 -0.01574,-0.0344 -0.02361,-0.047 -0.04012,-0.0802 -0.314888,-10e-4 -0.629798,9.2e-4 -0.94463,0 z m 82.478023,5.31946 v 0.14748 c 1.32161,0.0449 2.64436,0.0527 3.96613,0.0937 -0.0344,-0.0699 -0.0493,-0.1438 -0.0803,-0.21464 -1.29523,-0.007 -2.59055,-0.0184 -3.88573,-0.0273 z m -200.671246,1.82898 c 0.520533,0.0346 1.040726,0.0748 1.560997,0.11389 0.0078,-0.0378 0.0078,-0.0761 0.01313,-0.11389 z" />
</svg>
