<?xml version="1.0" encoding="UTF-8" standalone="no"?>
<svg
   width="64"
   height="64"
   viewBox="0 0 64 64"
   version="1.1"
   id="svg2"
   sodipodi:docname="favicon.svg"
   inkscape:version="1.3 (0e150ed6c4, 2023-07-21)"
   xmlns:inkscape="http://www.inkscape.org/namespaces/inkscape"
   xmlns:sodipodi="http://sodipodi.sourceforge.net/DTD/sodipodi-0.dtd"
   xmlns="http://www.w3.org/2000/svg"
   xmlns:svg="http://www.w3.org/2000/svg">
  <defs
     id="defs2" />
  <sodipodi:namedview
     id="namedview2"
     pagecolor="#ffffff"
     bordercolor="#000000"
     borderopacity="0.25"
     inkscape:showpageshadow="2"
     inkscape:pageopacity="0.0"
     inkscape:pagecheckerboard="0"
     inkscape:deskcolor="#d1d1d1"
     inkscape:zoom="4.2923591"
     inkscape:cx="8.0375381"
     inkscape:cy="16.424534"
     inkscape:window-width="1920"
     inkscape:window-height="991"
     inkscape:window-x="357"
     inkscape:window-y="1341"
     inkscape:window-maximized="1"
     inkscape:current-layer="svg2" />
  <rect
     width="100%"
     height="100%"
     rx="12"
     fill="#071427"
     id="rect1" />
  <path
     id="path17"
     style="fill:#48d1da;fill-opacity:1;stroke-width:0.426156"
     d="m 29.903781,5.0746865 c -0.298659,0 -2.828974,4.9644515 -3.849589,7.5526875 l -0.682522,1.729607 -1.377528,1.256839 c -1.238535,1.129362 -2.405924,2.358855 -2.518671,2.652678 -0.02314,0.06033 0.158172,0.471559 0.402856,0.913913 0.410204,0.741748 1.127188,2.252101 1.487396,3.133774 0.09756,0.238807 0.36845,0.535637 0.773247,0.846494 2.612742,2.006361 4.043614,3.387834 5.031516,4.857554 0.584198,0.869178 1.174536,1.928502 1.110346,1.99263 -0.01735,0.01735 -0.320551,-0.311928 -0.674196,-0.731628 -0.893051,-1.05985 -2.322318,-2.350011 -3.758032,-3.393464 -1.155931,-0.840182 -2.875984,-1.898576 -3.086332,-1.898576 -0.05394,0 -0.291395,-0.428334 -0.527706,-0.951367 -0.530926,-1.175115 -1.449036,-2.72554 -2.235672,-3.777175 -0.62683,-0.838064 -2.067774,-2.338121 -2.614392,-2.721762 l -0.322949,-0.227234 -0.349582,0.76659 c -0.440526,0.96667 -1.121376,3.082136 -1.546496,4.802621 l -0.327944,1.325923 -0.575149,0.290488 c -0.914973,0.461876 -3.758623,2.070664 -4.4780061,2.533652 -1.2881885,0.829221 -1.785977,1.556416 -1.8011903,2.628542 l -0.00831,0.584307 -1.4041666,0.774912 c -1.5282052,0.842414 -4.6346761,2.632302 -5.3120152,3.061359 -0.2333258,0.147797 -0.42226506,0.345759 -0.4219957,0.441144 8.2132e-4,0.255493 0.6538658,1.487914 1.1103427,2.095009 0.532171,0.707627 0.8894894,0.91432 1.5856165,0.914744 h 0.5568381 l 0.3387626,0.503573 c 0.2120871,0.314926 0.581636,0.664888 0.9863256,0.93388 0.5759252,0.382819 1.4163294,0.852324 1.5256861,0.852324 0.022202,0 -0.019906,-0.260346 -0.093223,-0.577646 -0.073304,-0.317293 -0.145472,-0.843489 -0.1606428,-1.169443 l -0.027497,-0.592627 1.1944107,-0.615934 c 2.5050314,-1.29146 4.3703934,-1.660757 5.4976294,-1.089539 0.470933,0.238641 1.452138,1.22591 1.362547,1.370867 -0.02271,0.03677 -0.366275,0.164589 -0.763261,0.284662 -1.258723,0.380722 -2.15105,0.841603 -3.639839,1.879428 -0.4647534,0.324036 -0.5797565,0.31871 -1.0820458,-0.05245 -0.1745602,-0.129001 -0.337327,-0.2011 -0.361234,-0.159813 -0.02391,0.04126 -0.073798,0.324552 -0.110704,0.629258 -0.087144,0.71986 -0.3445503,1.136237 -0.7957211,1.285135 -0.411258,0.135731 -0.404208,0.117483 -0.1980965,0.516059 0.4644458,0.898123 1.5327132,1.648661 2.4862084,1.747081 0.526158,0.05432 0.526622,0.05402 1.490728,-0.65672 2.995342,-2.208073 5.249237,-2.600397 6.663742,-1.161119 1.1346,1.154471 1.916676,3.152691 2.284784,5.837229 0.0588,0.428822 0.150102,0.542819 1.477407,1.851134 3.110503,3.065828 5.502541,4.947335 8.895259,6.99834 0.813005,0.491483 1.546977,0.894341 1.631394,0.894774 0.365668,0.0022 3.486311,-1.976839 5.221284,-3.311072 1.567698,-1.205584 3.227506,-2.659366 5.064817,-4.438879 2.54612,-2.466008 3.253282,-2.869188 4.880032,-2.77837 1.529343,0.08538 3.189009,0.853278 5.042329,2.333061 0.506353,0.404298 1.029012,0.762354 1.161954,0.79572 0.844161,0.211866 2.282112,-0.420884 2.672652,-1.176091 0.147295,-0.284833 0.439475,-1.269767 0.439475,-1.481575 0,-0.05215 -0.16758,-0.0052 -0.37206,0.10404 -0.204481,0.109588 -0.537209,0.199756 -0.739116,0.199756 -0.389332,0 -0.555382,-0.110051 -1.584784,-1.046246 -0.305743,-0.278056 -0.942633,-0.767853 -1.414979,-1.088712 -0.472354,-0.320859 -0.835909,-0.620215 -0.808209,-0.665039 0.08572,-0.1387 1.050462,-0.385378 1.507372,-0.385378 1.146645,0 2.654054,0.509619 3.89121,1.315105 0.50759,0.33049 0.619164,0.448979 0.579309,0.616769 -0.101322,0.426545 -0.183553,1.153627 -0.130679,1.153627 0.03014,0 0.512319,-0.22402 1.07206,-0.497743 0.559732,-0.273729 1.09333,-0.497742 1.185259,-0.497742 0.09192,0 0.543424,-0.226332 1.003797,-0.502733 1.230926,-0.739012 1.929426,-1.461804 2.086688,-2.159101 0.07177,-0.318152 0.04841,-0.386557 -0.212246,-0.630086 -0.366541,-0.342405 -3.819857,-2.665103 -5.019024,-3.375981 -0.492707,-0.292068 -0.911418,-0.542923 -0.930562,-0.557665 -0.01918,-0.01478 0.01508,-0.177436 0.07574,-0.361243 0.169819,-0.514574 -0.07956,-1.223189 -0.610106,-1.734604 -0.40905,-0.394311 -3.011141,-2.495657 -3.987757,-3.220341 -0.25822,-0.191605 -0.487118,-0.438189 -0.50856,-0.54768 -0.02149,-0.109412 -0.111529,-0.747683 -0.200601,-1.418315 -0.08906,-0.670634 -0.32156,-1.745558 -0.516051,-2.388825 -0.353581,-1.169519 -1.17401,-2.90886 -1.409153,-2.986447 -0.285421,-0.09417 -3.611116,3.611112 -4.663622,5.19632 l -0.353745,0.532699 -0.8132,0.06826 c -2.705464,0.225103 -6.17923,1.220195 -7.930572,2.272299 l -0.547676,0.328775 -0.07991,0.640909 c -0.04409,0.352523 -0.0579,1.28555 -0.03074,2.073361 0.02834,0.823409 0.01201,1.395181 -0.03828,1.344241 -0.111902,-0.113401 -0.521796,-1.533462 -0.758267,-2.626879 -0.340614,-1.574799 -0.214791,-5.258102 0.198929,-5.82391 0.103539,-0.141599 0.238897,-0.147042 1.185253,-0.05076 1.182403,0.120275 2.359964,0.429476 3.620704,0.951367 0.951794,0.394007 1.407429,0.426983 2.128295,0.153154 1.060519,-0.402977 1.785295,-1.311639 1.944356,-2.437101 0.06408,-0.453503 0.05535,-0.483526 -0.119026,-0.408684 -0.10333,0.04436 -0.437946,0.149744 -0.744115,0.23389 L 42.573753,27.9067 41.58743,27.300757 c -1.636396,-1.004945 -3.150535,-1.672852 -4.246619,-1.873604 -0.205905,-0.03772 -0.399366,-0.108568 -0.429492,-0.157316 -0.03014,-0.04876 0.188075,-0.33122 0.484425,-0.627585 0.404283,-0.40429 0.670724,-0.578477 1.068733,-0.696673 0.663323,-0.196985 2.027094,-0.204122 2.998935,-0.01581 0.815646,0.157977 2.456817,0.708903 2.642684,0.887278 0.11484,0.110217 0.05856,0.88683 -0.12901,1.782882 -0.03156,0.150553 -0.01418,0.273842 0.03827,0.273842 0.12037,0 1.027476,-0.549789 1.6031,-0.972177 0.305966,-0.224532 0.548228,-0.322118 0.804037,-0.322118 0.491177,0 1.133626,-0.436673 1.936872,-1.31677 1.102105,-1.207498 1.686143,-2.632431 1.342567,-3.274438 -0.144393,-0.269788 -0.451427,-0.391534 -4.123428,-1.628897 -1.751842,-0.590231 -3.257543,-1.110061 -3.346025,-1.155289 -0.100324,-0.05128 -0.18706,-0.276822 -0.229728,-0.598458 -0.171924,-1.296143 -0.740602,-1.761139 -3.64149,-2.977297 -1.219057,-0.511073 -4.344218,-1.590608 -4.604519,-1.590608 -0.07818,0 -0.245876,-0.354671 -0.412011,-0.870631 C 32.942033,10.916492 32.295223,9.3628876 31.605131,7.9862209 30.876234,6.5322017 30.024864,5.0746847 29.903822,5.0746847 Z m 7.974685,1.9543441 c -0.135275,0.018497 -0.405171,0.3472981 -1.154462,1.3309174 -1.385518,1.818723 -2.462756,3.619253 -2.267303,3.789657 0.04014,0.03499 0.583905,0.236007 1.20856,0.44697 0.624669,0.210965 1.543303,0.590793 2.040903,0.843995 0.497607,0.253204 0.937754,0.467898 0.97884,0.476933 0.167297,0.03681 0.114856,-2.717425 -0.07824,-4.1142708 -0.139663,-1.0103393 -0.464178,-2.4142637 -0.625088,-2.7017885 -0.0279,-0.049952 -0.05812,-0.078579 -0.10321,-0.072416 z m -8.164461,3.0230704 c 0.03867,0 0.09509,0.167591 0.125686,0.372891 0.286572,1.922679 0.356657,2.452707 0.400355,3.028896 l 0.04994,0.665045 -0.541022,0.30547 c -0.297851,0.168099 -0.58801,0.305468 -0.644232,0.305468 -0.06011,0 -0.08255,-0.153406 -0.05494,-0.37289 0.02581,-0.205299 0.07158,-0.642035 0.101548,-0.970512 0.08928,-0.978603 0.486868,-3.334368 0.562662,-3.334368 z m 5.121412,7.134013 0.54352,0.06409 c 1.222668,0.144585 3.183757,0.773351 3.729733,1.195241 0.191051,0.147625 0.176279,0.163539 -0.366235,0.404518 -0.726141,0.322545 -1.428953,0.407068 -1.823664,0.219742 -0.452151,-0.21458 -1.363868,-0.975058 -1.74459,-1.455771 z m -16.788369,3.102977 c 0.05565,0.03648 0.149198,0.231081 0.352081,0.662547 0.205941,0.437968 0.483752,1.221177 0.616767,1.741263 0.161711,0.632259 0.232088,1.153256 0.21308,1.571464 l -0.0283,0.625091 -0.6717,-0.67753 -0.6717,-0.677525 0.01163,-1.390845 c 0.0065,-0.765069 0.04435,-1.525423 0.08406,-1.689661 0.01739,-0.07191 0.03133,-0.124732 0.04828,-0.151487 0.0127,-0.02007 0.02723,-0.02548 0.04578,-0.0133 z m -3.972773,6.736159 c 0,0.127345 -1.395426,2.006147 -1.608089,2.164922 -0.194844,0.14547 -0.487718,0.201962 -1.263499,0.244709 -0.662905,0.03652 -1.010463,0.02075 -1.010463,-0.0466 0,-0.238585 1.32712,-1.328213 2.028421,-1.665523 0.737188,-0.354615 1.85363,-0.774767 1.85363,-0.697499 z m 35.442853,2.138286 c 0.072,0 0.08529,0.26497 0.04245,0.820692 -0.09526,1.235265 -0.232822,1.848708 -0.428656,1.90607 -0.324164,0.09514 -0.866685,0.149612 -0.983004,0.09904 -0.155009,-0.06738 0.334781,-1.221975 0.867305,-2.045898 0.217536,-0.336585 0.395368,-0.649583 0.395368,-0.695838 0,-0.04627 0.04804,-0.08407 0.106538,-0.08407 z m -27.416566,6.369928 c 0.105593,0 1.52926,2.035063 1.845304,2.637702 0.702128,1.338785 0.900014,2.116837 0.955531,3.758023 0.04658,1.377318 -0.0014,1.824514 -0.128182,1.194414 -0.403649,-2.005921 -0.927374,-3.566412 -2.037578,-6.071945 -0.369834,-0.834867 -0.655617,-1.518194 -0.635075,-1.518194 z m 29.389212,0.02415 c 0.02558,-0.0044 0.06827,0.0058 0.124852,0.02165 1.34409,0.376775 3.528617,2.055795 3.06053,2.352206 -0.179852,0.113893 -0.830351,0.09733 -1.324258,-0.03327 -0.525667,-0.138977 -1.117421,-0.754434 -1.58811,-1.653035 -0.277267,-0.529299 -0.349694,-0.674539 -0.273014,-0.687514 z m -8.548998,6.64543 c 0.03208,0 -0.640128,0.705073 -1.493219,1.567304 -0.853106,0.86223 -1.8847,1.97237 -2.293109,2.467061 -0.408401,0.494697 -0.864961,1.054736 -1.0138,1.244355 l -0.270508,0.34459 0.183942,-0.551832 c 0.415272,-1.24851 1.120017,-2.242331 2.36053,-3.326873 0.738205,-0.645373 2.330218,-1.744589 2.526164,-1.744589 z m 29.837022,18.430583 c -0.0083,0.08518 -0.03939,0.168126 -0.08407,0.247208 0.141767,-0.03886 0.22819,-0.06379 0.273842,-0.07657 -0.0658,-0.05446 -0.118907,-0.122459 -0.189767,-0.170632 z m -61.883077,7.126498 c 0.04078,0.0037 0.08158,0.0067 0.122357,0.01 -0.0021,-0.0046 -0.003,-0.006 -0.0049,-0.01 -0.03912,-1.42e-4 -0.07825,1.11e-4 -0.117362,0 z m 10.24698,0.660883 v 0.01835 c 0.164195,0.0052 0.328535,0.0067 0.492748,0.01164 -0.0043,-0.0087 -0.0061,-0.01791 -0.01,-0.02671 -0.16092,-7.47e-4 -0.321846,-0.0022 -0.482759,-0.0037 z m -24.931181,0.22724 c 0.064668,0.0046 0.129297,0.0093 0.1939364,0.01418 8.953e-4,-0.0045 8.953e-4,-0.0095 0.00171,-0.01418 z" />
</svg>
