<?xml version="1.0" encoding="UTF-8" standalone="no"?>
<svg
   viewBox="0 0 200 200"
   version="1.1"
   id="svg5"
   sodipodi:docname="logo.svg"
   inkscape:version="1.3 (0e150ed6c4, 2023-07-21)"
   xmlns:inkscape="http://www.inkscape.org/namespaces/inkscape"
   xmlns:sodipodi="http://sodipodi.sourceforge.net/DTD/sodipodi-0.dtd"
   xmlns="http://www.w3.org/2000/svg"
   xmlns:svg="http://www.w3.org/2000/svg">
  <sodipodi:namedview
     id="namedview5"
     pagecolor="#ffffff"
     bordercolor="#000000"
     borderopacity="0.25"
     inkscape:showpageshadow="2"
     inkscape:pageopacity="0.0"
     inkscape:pagecheckerboard="0"
     inkscape:deskcolor="#d1d1d1"
     inkscape:zoom="1.3735549"
     inkscape:cx="-70.255654"
     inkscape:cy="14.196738"
     inkscape:window-width="1920"
     inkscape:window-height="991"
     inkscape:window-x="357"
     inkscape:window-y="1341"
     inkscape:window-maximized="1"
     inkscape:current-layer="svg5" />
  <defs
     id="defs2">
    <linearGradient
       id="g"
       x1="0"
       x2="1"
       y1="0"
       y2="1">
      <stop
         offset="0"
         stop-color="#40E0D0"
         id="stop1" />
      <stop
         offset="1"
         stop-color="#60A5FA"
         id="stop2" />
    </linearGradient>
  </defs>
  <rect
     width="100%"
     height="100%"
     rx="24"
     fill="#071427"
     id="rect2" />
  <path
     id="path17"
     style="fill:#48d1da;fill-opacity:1;stroke-width:1.30719"
     d="m 93.49582,21.546785 c -0.916102,0 -8.677578,15.227931 -11.808206,23.167069 l -2.093565,5.305391 -4.225422,3.855222 c -3.799077,3.464197 -7.379917,7.235537 -7.725763,8.136812 -0.07099,0.185034 0.48518,1.446456 1.235724,2.803331 1.258257,2.275234 3.457531,6.908083 4.562429,9.612524 0.29927,0.732516 1.130183,1.643007 2.371854,2.596532 8.01431,6.154298 12.40336,10.391825 15.433647,14.900033 1.791965,2.666113 3.602766,5.915474 3.405869,6.112182 -0.05324,0.05321 -0.983256,-0.956806 -2.068028,-2.244189 -2.739338,-3.250982 -7.123462,-7.208414 -11.527367,-10.409094 -3.545699,-2.577171 -8.821776,-5.823683 -9.466997,-5.823683 -0.165452,0 -0.893825,-1.313867 -1.618679,-2.918219 -1.628563,-3.604541 -4.44477,-8.360306 -6.857692,-11.586085 -1.922736,-2.570675 -6.342681,-7.171942 -8.019373,-8.348722 l -0.990611,-0.697012 -1.072309,2.351431 c -1.351267,2.965162 -3.439702,9.45413 -4.743713,14.731535 l -1.005931,4.067131 -1.76421,0.891041 c -2.806586,1.416756 -11.529181,6.351543 -13.735814,7.771711 -3.951379,2.54355 -5.478294,4.774144 -5.52496,8.062774 l -0.02549,1.792301 -4.307134,2.376961 c -4.687611,2.584018 -14.2163822,8.074308 -16.2940477,9.390398 -0.7157047,0.45335 -1.2952522,1.06058 -1.2944288,1.35316 0.00257,0.7837 2.0056641,4.56402 3.4058585,6.42622 1.6323798,2.17057 2.728415,2.80458 4.863714,2.80588 h 1.70804 l 1.03912,1.54466 c 0.650554,0.96599 1.784106,2.03948 3.02545,2.86459 1.76659,1.17425 4.344441,2.61441 4.679882,2.61441 0.0681,0 -0.06105,-0.7986 -0.285951,-1.77188 -0.22485,-0.97326 -0.446213,-2.5873 -0.492749,-3.58714 l -0.08432,-1.81782 3.663729,-1.88931 c 7.68392,-3.96142 13.405719,-5.0942 16.863396,-3.34205 1.444535,0.73201 4.454284,3.76035 4.179473,4.20499 -0.06967,0.11281 -1.123513,0.50486 -2.341223,0.87317 -3.860999,1.16783 -6.59812,2.58153 -11.164825,5.76496 -1.42558,0.99394 -1.778341,0.97761 -3.319059,-0.16085 -0.535444,-0.3957 -1.034716,-0.61685 -1.108049,-0.4902 -0.07334,0.12663 -0.22637,0.99553 -0.339573,1.93017 -0.267321,2.20811 -1.056871,3.48529 -2.44079,3.94203 -1.261489,0.41633 -1.239867,0.36037 -0.60764,1.58294 1.424639,2.7549 4.701438,5.05711 7.626181,5.359 1.613936,0.16658 1.61536,0.16558 4.572652,-2.01442 9.187895,-6.77303 16.101482,-7.97645 20.440328,-3.5616 3.480264,3.5412 5.8792,9.67053 7.008333,17.90507 0.180355,1.31537 0.460422,1.66504 4.53179,5.67816 9.541145,9.40411 16.878468,15.17543 27.285272,21.46667 2.493807,1.50757 4.745188,2.7433 5.004128,2.74462 1.12165,0.007 10.69388,-6.06373 16.01575,-10.15635 4.80876,-3.69801 9.90003,-8.15734 15.53578,-13.6158 7.80994,-7.56422 9.97912,-8.80094 14.96898,-8.52235 4.69113,0.26191 9.78198,2.61734 15.46682,7.15642 1.55318,1.24013 3.15639,2.33843 3.56417,2.44078 2.58937,0.64987 7.00016,-1.29102 8.1981,-3.60755 0.4518,-0.87368 1.34804,-3.89487 1.34804,-4.54457 0,-0.16006 -0.51404,-0.0171 -1.14125,0.31913 -0.62723,0.33617 -1.64784,0.61275 -2.26718,0.61275 -1.19422,0 -1.70356,-0.33758 -4.86114,-3.20927 -0.93784,-0.8529 -2.89143,-2.35531 -4.34031,-3.33949 -1.44889,-0.98421 -2.56405,-1.90246 -2.4791,-2.03995 0.26294,-0.42545 3.22218,-1.1821 4.62372,-1.1821 3.5172,0 8.14102,1.56319 11.93588,4.03394 1.55697,1.01374 1.89921,1.3772 1.77696,1.89188 -0.31079,1.30839 -0.56303,3.53862 -0.40085,3.53862 0.0924,0 1.57149,-0.68716 3.28844,-1.52677 1.71692,-0.83963 3.35368,-1.52676 3.63565,-1.52676 0.28196,0 1.66691,-0.69425 3.07905,-1.5421 3.77573,-2.26683 5.9183,-4.48392 6.4007,-6.62281 0.22009,-0.97588 0.14861,-1.18572 -0.65105,-1.93271 -1.12433,-1.05029 -11.71702,-8.17493 -15.39534,-10.35547 -1.51131,-0.8959 -2.79568,-1.66537 -2.8544,-1.71059 -0.0587,-0.0452 0.0462,-0.54427 0.23233,-1.10807 0.52091,-1.5784 -0.24404,-3.752 -1.87143,-5.32071 -1.25473,-1.20951 -9.23635,-7.65517 -12.23203,-9.87806 -0.79206,-0.58773 -1.49419,-1.3441 -1.55996,-1.67995 -0.0658,-0.33561 -0.34209,-2.29344 -0.61531,-4.35053 -0.27321,-2.057101 -0.98636,-5.354317 -1.58293,-7.327471 -1.08459,-3.587377 -3.60115,-8.922622 -4.32244,-9.160613 -0.87549,-0.288864 -11.07672,11.076707 -14.30517,15.939167 l -1.08508,1.633997 -2.4944,0.20936 c -8.29872,0.69048 -18.95413,3.74282 -24.32619,6.97004 l -1.67995,1.00848 -0.2451,1.96592 c -0.13516,1.08133 -0.17751,3.94329 -0.0944,6.35982 0.0869,2.52572 0.0368,4.27956 -0.11743,4.1233 -0.34325,-0.34785 -1.60054,-4.70372 -2.3259,-8.05766 -1.04479,-4.83053 -0.65886,-16.128672 0.6102,-17.864229 0.31758,-0.434343 0.73278,-0.451036 3.63564,-0.15574 3.62689,0.368931 7.23894,1.31737 11.10611,2.918221 2.91954,1.208571 4.31714,1.309722 6.52833,0.469782 3.25303,-1.236089 5.47621,-4.023315 5.96411,-7.475553 0.1966,-1.39107 0.16969,-1.483163 -0.3651,-1.253593 -0.31696,0.136068 -1.34336,0.459325 -2.2825,0.717431 l -1.70803,0.469768 -3.02545,-1.858668 c -5.01946,-3.082562 -9.66394,-5.131297 -13.02605,-5.747081 -0.63159,-0.115687 -1.22501,-0.333022 -1.31743,-0.482554 -0.0924,-0.149542 0.5769,-1.015981 1.48593,-1.925048 1.2401,-1.240115 2.05738,-1.774419 3.27822,-2.136971 2.03467,-0.604228 6.21789,-0.626124 9.19892,-0.0485 2.50192,0.484581 7.53603,2.174489 8.10615,2.721631 0.35227,0.338082 0.17967,2.720259 -0.39572,5.468804 -0.0967,0.461808 -0.0436,0.839981 0.11739,0.839981 0.36921,0 3.15166,-1.686419 4.91733,-2.98205 0.93853,-0.688726 1.68163,-0.988061 2.4663,-0.988061 1.50664,0 3.47728,-1.339449 5.94114,-4.039054 3.3806,-3.703873 5.17208,-8.074707 4.11819,-10.043992 -0.4429,-0.827548 -1.3847,-1.20099 -12.64819,-4.996472 -5.37358,-1.810473 -9.99215,-3.404996 -10.26357,-3.543729 -0.30774,-0.157283 -0.57379,-0.849119 -0.70466,-1.835703 -0.52741,-3.97577 -2.27177,-5.402096 -11.16993,-9.132532 -3.73934,-1.567661 -13.32543,-4.879022 -14.12389,-4.879022 -0.2398,0 -0.7542,-1.087918 -1.2638,-2.670572 -1.23525,-3.836058 -3.21927,-8.601575 -5.336055,-12.824355 -2.235816,-4.460051 -4.847302,-8.930833 -5.218584,-8.930833 z m 24.4615,5.994743 c -0.41493,0.05673 -1.2428,1.065303 -3.54119,4.082452 -4.24992,5.578739 -7.55423,11.101675 -6.95471,11.624372 0.12306,0.10732 1.79107,0.723927 3.70713,1.37103 1.91611,0.647117 4.73392,1.812199 6.26026,2.588872 1.52635,0.776673 2.87647,1.435227 3.00249,1.462941 0.51316,0.112941 0.35231,-8.335417 -0.24,-12.620093 -0.4284,-3.099111 -1.42381,-7.4055 -1.91738,-8.287454 -0.0857,-0.153217 -0.17831,-0.241023 -0.3166,-0.22212 z m -25.043619,9.272953 c 0.118604,0 0.291668,0.514069 0.385531,1.143801 0.87903,5.897617 1.094008,7.523422 1.228045,9.290821 l 0.153191,2.039953 -1.659528,0.937001 c -0.913627,0.515625 -1.803659,0.936988 -1.976114,0.936988 -0.184376,0 -0.253214,-0.470553 -0.168516,-1.1438 0.07916,-0.629732 0.219583,-1.969377 0.311488,-2.97694 0.273853,-3.001763 1.493417,-10.227824 1.725903,-10.227824 z m 15.709399,21.882836 1.66719,0.196603 c 3.75041,0.443506 9.76583,2.372176 11.44056,3.666279 0.58602,0.452827 0.54071,0.501639 -1.12339,1.24082 -2.22736,0.989368 -4.38317,1.248638 -5.59389,0.674033 -1.38692,-0.658203 -4.18353,-2.990889 -5.35136,-4.465424 z M 57.126541,68.21537 c 0.170707,0.111897 0.45765,0.708816 1.079971,2.032292 0.631703,1.343422 1.483855,3.745834 1.891871,5.341142 0.49603,1.939389 0.711902,3.537495 0.653601,4.820301 l -0.0868,1.917402 -2.06037,-2.078253 -2.060369,-2.078239 0.03567,-4.266271 c 0.01987,-2.346765 0.136041,-4.679072 0.257872,-5.182854 0.05333,-0.220576 0.09608,-0.382603 0.148079,-0.46467 0.03895,-0.06157 0.08352,-0.07818 0.140419,-0.04079 z M 44.940479,88.877829 c 0,0.390618 -4.280323,6.153646 -4.932643,6.64067 -0.597665,0.446214 -1.496026,0.619496 -3.875652,0.750622 -2.033391,0.112026 -3.09949,0.06365 -3.09949,-0.142969 0,-0.731837 4.070804,-4.074152 6.221972,-5.108815 2.261248,-1.087746 5.685813,-2.376515 5.685813,-2.139508 z m 108.717211,6.55897 c 0.22084,0 0.26165,0.812766 0.13019,2.517381 -0.29219,3.78905 -0.71414,5.67072 -1.31485,5.84667 -0.99433,0.29182 -2.65847,0.45892 -3.01525,0.30381 -0.47548,-0.2067 1.0269,-3.74828 2.66035,-6.275579 0.66727,-1.03244 1.21275,-1.992526 1.21275,-2.13441 0,-0.14191 0.14735,-0.257872 0.32679,-0.257872 z M 69.560266,114.97588 c 0.323898,0 4.690847,6.24234 5.660279,8.09087 2.153704,4.10659 2.760701,6.49317 2.93099,11.52735 0.142902,4.22478 -0.0042,5.59649 -0.393183,3.66374 -1.238154,-6.15296 -2.844624,-10.93961 -6.250056,-18.62506 -1.134429,-2.56087 -2.011037,-4.6569 -1.94803,-4.6569 z m 90.148324,0.0741 c 0.0784,-0.0132 0.2094,0.0177 0.38297,0.0664 4.12284,1.15572 10.82366,6.30593 9.38784,7.21513 -0.55166,0.34935 -2.54701,0.29856 -4.06202,-0.10212 -1.61243,-0.4263 -3.42756,-2.31415 -4.87136,-5.07051 -0.85047,-1.62357 -1.07264,-2.06908 -0.83743,-2.10888 z m -26.22316,20.38415 c 0.0983,0 -1.96353,2.16274 -4.5803,4.80754 -2.6168,2.64482 -5.78111,6.05005 -7.03387,7.56746 -1.25273,1.51743 -2.65317,3.2353 -3.10971,3.81693 l -0.82976,1.05699 0.56423,-1.69268 c 1.2738,-3.82968 3.43552,-6.87813 7.24067,-10.20484 2.26438,-1.97961 7.14771,-5.35134 7.74874,-5.35134 z m 91.52192,56.53388 c -0.0257,0.26126 -0.12079,0.51569 -0.25789,0.75827 0.43486,-0.11934 0.69997,-0.19569 0.83999,-0.23489 -0.20178,-0.16704 -0.36474,-0.37562 -0.5821,-0.52338 z M 35.187535,213.82779 c 0.125099,0.0104 0.250237,0.02 0.375311,0.0306 -0.0065,-0.0131 -0.0091,-0.0179 -0.0153,-0.0306 -0.12,-4.4e-4 -0.240001,3.5e-4 -0.35999,0 z m 31.43153,2.02719 v 0.0562 c 0.50365,0.0171 1.007746,0.0201 1.51145,0.0357 -0.01307,-0.0266 -0.01882,-0.0548 -0.03059,-0.0818 -0.493599,-0.003 -0.987224,-0.007 -1.480809,-0.0104 z m -76.473774,0.69701 c 0.198368,0.0132 0.396604,0.0285 0.59488,0.0434 0.0027,-0.0144 0.0027,-0.029 0.0053,-0.0434 z" />
</svg>
