<?xml version="1.0" encoding="UTF-8" standalone="no"?>
<svg
   width="512"
   height="512"
   viewBox="0 0 512 512"
   role="img"
   aria-label="Cerberus logo"
   version="1.1"
   id="svg5"
   sodipodi:docname="avatar_black.svg"
   inkscape:version="1.3 (0e150ed6c4, 2023-07-21)"
   xmlns:inkscape="http://www.inkscape.org/namespaces/inkscape"
   xmlns:sodipodi="http://sodipodi.sourceforge.net/DTD/sodipodi-0.dtd"
   xmlns="http://www.w3.org/2000/svg"
   xmlns:svg="http://www.w3.org/2000/svg">
  <sodipodi:namedview
     id="namedview5"
     pagecolor="#ffffff"
     bordercolor="#000000"
     borderopacity="0.25"
     inkscape:showpageshadow="2"
     inkscape:pageopacity="0.0"
     inkscape:pagecheckerboard="0"
     inkscape:deskcolor="#d1d1d1"
     inkscape:zoom="1.0730898"
     inkscape:cx="141.1811"
     inkscape:cy="253.00772"
     inkscape:window-width="1920"
     inkscape:window-height="991"
     inkscape:window-x="357"
     inkscape:window-y="1341"
     inkscape:window-maximized="1"
     inkscape:current-layer="svg5" />
  <defs
     id="defs2">
    <linearGradient
       id="g"
       x1="0"
       x2="1"
       y1="0"
       y2="1">
      <stop
         offset="0%"
         stop-color="#0b5bd7"
         id="stop1" />
      <stop
         offset="100%"
         stop-color="#072b80"
         id="stop2" />
    </linearGradient>
  </defs>
  <ellipse
     style="opacity:1;fill:#800000;fill-opacity:1"
     id="path3"
     cx="257.66714"
     cy="261.86066"
     rx="225.05106"
     ry="216.19812" />
  <rect
     width="100%"
     height="100%"
     rx="48"
     fill="#070708"
     id="rect2"
     style="opacity:1" />
  <ellipse
     style="opacity:1;fill:#800000;fill-opacity:1"
     id="path5"
     cx="253.47366"
     cy="259.99689"
     rx="229.24457"
     ry="226.4489" />
  <path
     id="path17"
     style="fill:#000000;fill-opacity:1;stroke-width:2.75722"
     d="m 238.10153,36.421324 c -1.89911,0 -17.98909,32.681024 -24.47903,49.719374 l -4.34007,11.38601 -8.7595,8.273792 c -7.8757,7.43457 -15.29899,15.52832 -16.01594,17.4626 -0.14713,0.39707 1.00579,3.10425 2.56174,6.01628 2.60841,4.88291 7.16762,14.82559 9.45815,20.62963 0.6204,1.57208 2.34292,3.52611 4.91696,5.57248 16.61407,13.20787 25.71281,22.30213 31.99477,31.97729 3.71484,5.72178 7.46871,12.69531 7.06055,13.11747 -0.11028,0.11416 -2.03835,-2.05341 -4.28714,-4.81628 -5.67879,-6.977 -14.76729,-15.47012 -23.89684,-22.33919 -7.35042,-5.53091 -18.28798,-12.49834 -19.62558,-12.49834 -0.34299,0 -1.85294,-2.8197 -3.3556,-6.26284 -3.37611,-7.73581 -9.21422,-17.94223 -14.21637,-24.86515 -3.98592,-5.51697 -13.14871,-15.39186 -16.62456,-17.91739 l -2.05361,-1.49587 -2.22296,5.04647 c -2.80125,6.36359 -7.13067,20.28971 -9.83393,31.61567 l -2.08535,8.72856 -3.65731,1.91229 c -5.81821,3.0405 -23.90063,13.63118 -28.47509,16.67903 -8.19143,5.45878 -11.356775,10.24589 -11.453545,17.30368 l -0.05288,3.84649 -8.928907,5.10125 c -9.717661,5.54562 -29.471301,17.32846 -33.77842,20.15294 -1.483676,0.97295 -2.685113,2.27615 -2.683418,2.90405 0.0068,1.68194 4.157852,9.79497 7.060526,13.79146 3.384013,4.65831 5.656149,6.01896 10.082737,6.02178 h 3.540851 l 2.154169,3.31503 c 1.348624,2.07312 3.698525,4.37696 6.271907,6.14775 3.662208,2.52009 9.006264,5.61085 9.701639,5.61085 0.141244,0 -0.126555,-1.7139 -0.592775,-3.80269 -0.466129,-2.08871 -0.925049,-5.55265 -1.021502,-7.69842 l -0.174691,-3.90128 7.595107,-4.05469 c 15.929152,-8.50168 27.790722,-10.93276 34.958712,-7.17245 2.99458,1.57101 9.23397,8.07018 8.66427,9.02443 -0.14441,0.2421 -2.32913,1.0835 -4.8535,1.87393 -8.00404,2.50632 -13.67824,5.54029 -23.14528,12.37231 -2.95528,2.13311 -3.68658,2.09808 -6.88056,-0.3452 -1.11002,-0.84923 -2.14504,-1.32384 -2.29706,-1.05204 -0.15187,0.27176 -0.46927,2.13653 -0.70394,4.14239 -0.55418,4.73886 -2.19097,7.47985 -5.0599,8.46007 -2.615124,0.89351 -2.57031,0.77339 -1.259652,3.3972 2.953342,5.91234 9.746322,10.85317 15.809472,11.50104 3.34575,0.35751 3.34873,0.35536 9.47933,-4.32318 19.047,-14.53574 33.37924,-17.11843 42.37391,-7.64362 7.21476,7.59984 12.18788,20.75412 14.52862,38.42645 0.3739,2.82295 0.95447,3.57339 9.39465,12.18603 19.7793,20.18237 34.98995,32.56832 56.5638,46.07008 5.16979,3.23545 9.83705,5.88747 10.37385,5.8903 2.32524,0.0145 22.16898,-13.0135 33.2015,-21.79676 9.9688,-7.93639 20.52328,-17.50665 32.2065,-29.22118 16.19041,-16.23373 20.68722,-18.88788 31.03147,-18.28999 9.72496,0.56209 20.27856,5.61712 32.06354,15.35854 3.21983,2.66147 6.54337,5.01857 7.38871,5.23821 5.3679,1.39471 14.5117,-2.77069 16.99509,-7.74225 0.93662,-1.875 2.79456,-8.35887 2.79456,-9.75319 0,-0.3435 -1.06564,-0.0366 -2.36585,0.6849 -1.30029,0.72146 -3.41608,1.31504 -4.70001,1.31504 -2.47566,0 -3.53156,-0.7245 -10.07739,-6.88749 -1.9442,-1.83043 -5.9941,-5.05478 -8.99768,-7.16696 -3.00364,-2.11223 -5.31542,-4.08291 -5.13933,-4.37797 0.54509,-0.91308 6.67976,-2.53695 9.58523,-2.53695 7.29133,0 16.87677,3.35481 24.74372,8.65733 3.22767,2.17562 3.93715,2.95565 3.68372,4.06022 -0.64428,2.80796 -1.1672,7.59431 -0.83099,7.59431 0.19164,0 3.2578,-1.47475 6.81711,-3.27663 3.55929,-1.80195 6.95237,-3.27662 7.53691,-3.27662 0.58451,0 3.45559,-1.48996 6.38303,-3.30956 7.82727,-4.86488 12.26894,-9.62302 13.269,-14.21333 0.45625,-2.09435 0.30807,-2.54472 -1.34967,-4.14784 -2.3308,-2.25404 -24.29001,-17.5444 -31.91536,-22.22409 -3.13302,-1.92272 -5.7956,-3.5741 -5.91732,-3.67113 -0.12159,-0.097 0.0958,-1.16809 0.48163,-2.37807 1.07987,-3.38744 -0.5059,-8.05225 -3.87957,-11.41888 -2.60113,-2.59577 -19.14745,-16.42897 -25.35764,-21.19956 -1.64198,-1.26134 -3.09755,-2.8846 -3.23389,-3.60536 -0.1365,-0.72026 -0.70918,-4.92201 -1.27556,-9.33679 -0.56638,-4.41478 -2.04479,-11.49102 -3.2815,-15.72562 -2.24841,-7.69896 -7.46539,-19.14903 -8.96066,-19.65978 -1.81493,-0.61996 -22.96261,23.77195 -29.65536,34.20737 l -2.24942,3.50675 -5.17104,0.44931 c -17.20368,1.48187 -39.29291,8.03256 -50.42948,14.95858 l -3.48263,2.16432 -0.5081,4.21912 c -0.28018,2.32067 -0.36798,8.46277 -0.1957,13.64892 0.18011,5.42052 0.0764,9.18447 -0.24344,8.84912 -0.71156,-0.74653 -3.318,-10.09476 -4.8217,-17.29272 -2.1659,-10.3669 -1.36587,-34.6141 1.26496,-38.33884 0.65838,-0.93215 1.51911,-0.96795 7.53689,-0.33422 7.51875,0.79176 15.00671,2.82722 23.02356,6.26287 6.05234,2.59371 8.94966,2.81079 13.53357,1.00819 6.74371,-2.65279 11.35246,-8.63452 12.3639,-16.04344 0.40758,-2.98539 0.35178,-3.18302 -0.75686,-2.69036 -0.65707,0.29202 -2.78485,0.98575 -4.73174,1.53969 l -3.54085,1.00819 -6.27191,-3.98892 c -10.40562,-6.61555 -20.03385,-11.0124 -27.00369,-12.33394 -1.30932,-0.24829 -2.53951,-0.7147 -2.7311,-1.03564 -0.19164,-0.32092 1.19594,-2.18041 3.08042,-4.13136 2.57078,-2.66145 4.26503,-3.80813 6.79591,-4.5862 4.21799,-1.29676 12.89003,-1.34375 19.06985,-0.10403 5.18663,1.03998 15.62258,4.66671 16.80447,5.84096 0.73029,0.72555 0.37247,5.838 -0.82035,11.73671 -0.20046,0.99109 -0.0904,1.80269 0.24337,1.80269 0.76538,0 6.53353,-3.61927 10.19389,-6.39984 1.94562,-1.47808 3.48609,-2.1205 5.11275,-2.1205 3.12336,0 7.2086,-2.87461 12.31631,-8.66831 7.00817,-7.94896 10.72199,-17.32928 8.53722,-21.55564 -0.91816,-1.776 -2.87056,-2.57746 -26.22036,-10.72302 -11.13973,-3.8855 -20.71427,-7.30754 -21.27692,-7.60527 -0.63798,-0.33755 -1.18951,-1.82233 -1.46081,-3.93967 -1.09335,-8.53247 -4.7095,-11.59355 -23.15586,-19.599512 -7.75183,-3.36438 -27.62431,-10.47098 -29.27956,-10.47098 -0.49711,0 -1.56349,-2.3348 -2.61993,-5.73138 -2.56073,-8.23263 -6.67372,-18.46001 -11.06195,-27.5226 -4.63496,-9.571817 -10.04871,-19.166671 -10.8184,-19.166671 z m 50.71,12.865464 c -0.86017,0.12161 -2.57639,2.28628 -7.34107,8.76144 -8.81031,11.97265 -15.66032,23.82554 -14.41748,24.94732 0.25512,0.23031 3.71298,1.55365 7.68509,2.94238 3.97218,1.38882 9.81366,3.8892 12.97783,5.55605 3.16422,1.66684 5.96307,3.08017 6.22434,3.13963 1.06378,0.24243 0.73036,-17.88879 -0.49754,-27.08423 -0.8881,-6.65108 -2.95165,-15.89311 -3.97485,-17.78588 -0.17763,-0.32884 -0.36963,-0.51729 -0.65632,-0.47671 z m -51.91677,19.90089 c 0.24588,0 0.60464,1.10327 0.79922,2.45473 1.82228,12.65701 2.26796,16.14619 2.54581,19.93924 l 0.31759,4.37799 -3.44031,2.01092 c -1.89401,1.10658 -3.73907,2.01089 -4.09656,2.01089 -0.38224,0 -0.52496,-1.00987 -0.34936,-2.45474 0.16429,-1.35148 0.45521,-4.22651 0.64572,-6.38887 0.56771,-6.44215 3.09594,-21.95016 3.57789,-21.95016 z m 32.56644,46.963242 3.45618,0.42191 c 7.77479,0.95183 20.24506,5.09102 23.71687,7.8683 1.21487,0.97184 1.12094,1.07659 -2.32883,2.66296 -4.61745,2.12329 -9.08654,2.67973 -11.59642,1.44654 -2.87517,-1.41258 -8.6727,-6.4188 -11.09367,-9.58333 z m -106.75509,20.42691 c 0.35388,0.24014 0.94873,1.52119 2.23882,4.36153 1.30955,2.88314 3.07612,8.03903 3.92194,11.46273 1.02831,4.16217 1.47581,7.59191 1.35495,10.34496 l -0.17989,4.115 -4.27125,-4.4602 -4.27125,-4.46016 0.0741,-9.15593 c 0.0414,-5.03643 0.28201,-10.04187 0.53458,-11.12302 0.11051,-0.47341 0.19932,-0.82111 0.30699,-0.99724 0.0807,-0.13215 0.1731,-0.16772 0.29109,-0.0875 z m -25.26235,44.34413 c 0,0.83834 -8.87333,13.20645 -10.22564,14.2517 -1.23902,0.95761 -3.10134,1.32948 -8.03446,1.6109 -4.21532,0.24045 -6.4254,0.1365 -6.4254,-0.30681 0,-1.57059 8.43901,-8.74362 12.89849,-10.96413 4.68769,-2.33445 11.78701,-5.10028 11.78701,-4.59166 z m 225.37654,14.07636 c 0.45781,0 0.5424,1.74428 0.26988,5.40261 -0.60572,8.13174 -1.48045,12.17004 -2.72575,12.54764 -2.06128,0.62629 -5.51115,0.98491 -6.25077,0.65202 -0.98571,-0.44359 2.12883,-8.04427 5.51506,-13.46815 1.38327,-2.21574 2.51408,-4.27618 2.51408,-4.5807 0,-0.30456 0.30547,-0.55342 0.67746,-0.55342 z m -174.33843,41.93326 c 0.67145,0 9.72435,13.39684 11.73405,17.36399 4.46477,8.81325 5.72309,13.93514 6.07608,24.73911 0.29625,9.06689 -0.009,12.01073 -0.81508,7.86282 -2.56674,-13.20499 -5.89703,-23.47773 -12.95668,-39.97164 -2.35173,-5.49594 -4.16899,-9.99428 -4.03837,-9.99428 z m 186.88224,0.15904 c 0.16249,-0.0283 0.43411,0.0381 0.79393,0.1425 8.54687,2.4803 22.43802,13.53328 19.46149,15.48454 -1.14362,0.74975 -5.2801,0.64076 -8.42078,-0.21917 -3.34266,-0.91488 -7.10552,-4.96645 -10.09859,-10.88192 -1.76307,-3.48439 -2.22362,-4.44049 -1.73605,-4.52592 z m -54.36199,43.74687 c 0.20385,0 -4.07048,4.64149 -9.49519,10.31757 -5.42478,5.6761 -11.98455,12.98416 -14.58158,16.2407 -2.59699,3.25659 -5.50017,6.94336 -6.44659,8.1916 l -1.72014,2.26842 1.16967,-3.63269 c 2.64066,-8.21896 7.12201,-14.76131 15.01028,-21.90083 4.69419,-4.24848 14.8176,-11.48463 16.06355,-11.48463 z m 189.7298,121.32862 c -0.0531,0.56068 -0.25042,1.10672 -0.53463,1.62732 0.9015,-0.25613 1.45107,-0.41997 1.74136,-0.5041 -0.41831,-0.3585 -0.75615,-0.80611 -1.20673,-1.12322 z m -393.50656,46.91373 c 0.25935,0.0223 0.51876,0.0428 0.77807,0.0658 -0.0136,-0.0281 -0.0181,-0.0383 -0.0316,-0.0658 -0.24875,-7.7e-4 -0.49755,7.6e-4 -0.74627,0 z m 65.15923,4.35061 v 0.12057 c 1.0441,0.0366 2.08913,0.0432 3.13332,0.0767 -0.0271,-0.0571 -0.0391,-0.11768 -0.0635,-0.17559 -1.02324,-0.006 -2.04655,-0.0145 -3.06977,-0.0223 z m -158.534151,1.49586 c 0.411236,0.0283 0.822155,0.0612 1.233211,0.0931 0.0068,-0.031 0.0068,-0.0623 0.0113,-0.0931 z" />
  <text
     xml:space="preserve"
     style="font-weight:bold;font-size:18.6667px;font-family:Arial;-inkscape-font-specification:'Arial Bold';text-align:center;text-anchor:middle;white-space:pre;inline-size:159.291;opacity:1;fill:#000000;fill-opacity:1"
     x="136.98759"
     y="389.52939"
     id="text6"
     transform="matrix(2.6676634,0,0,3.7661536,-107.49556,-1049.2254)"><tspan
       x="136.98759"
       y="389.52939"
       id="tspan1">CerberusSec</tspan></text>
</svg>
