<?xml version="1.0" encoding="UTF-8" standalone="no"?>
<svg
   width="512"
   height="512"
   viewBox="0 0 512 512"
   role="img"
   aria-label="Cerberus logo"
   version="1.1"
   id="svg5"
   sodipodi:docname="avatar.svg"
   inkscape:version="1.3 (0e150ed6c4, 2023-07-21)"
   xmlns:inkscape="http://www.inkscape.org/namespaces/inkscape"
   xmlns:sodipodi="http://sodipodi.sourceforge.net/DTD/sodipodi-0.dtd"
   xmlns="http://www.w3.org/2000/svg"
   xmlns:svg="http://www.w3.org/2000/svg">
  <sodipodi:namedview
     id="namedview5"
     pagecolor="#ffffff"
     bordercolor="#000000"
     borderopacity="0.25"
     inkscape:showpageshadow="2"
     inkscape:pageopacity="0.0"
     inkscape:pagecheckerboard="0"
     inkscape:deskcolor="#d1d1d1"
     inkscape:zoom="1.0730898"
     inkscape:cx="141.1811"
     inkscape:cy="253.00772"
     inkscape:window-width="1920"
     inkscape:window-height="991"
     inkscape:window-x="357"
     inkscape:window-y="1341"
     inkscape:window-maximized="1"
     inkscape:current-layer="svg5" />
  <defs
     id="defs2">
    <linearGradient
       id="g"
       x1="0"
       x2="1"
       y1="0"
       y2="1">
      <stop
         offset="0%"
         stop-color="#0b5bd7"
         id="stop1" />
      <stop
         offset="100%"
         stop-color="#072b80"
         id="stop2" />
    </linearGradient>
  </defs>
  <rect
     width="100%"
     height="100%"
     rx="48"
     fill="#070708"
     id="rect2"
     style="opacity:1" />
  <path
     id="path17"
     style="fill:#800000;fill-opacity:1;stroke-width:1.27536"
     d="m 94.426469,11.260334 c -0.84035,0 -7.96009,15.80188 -10.83186,24.04024 l -1.92046,5.50535 -3.87604,4.00053 c -3.48496,3.59475 -6.76973,7.50823 -7.08698,8.44349 -0.0651,0.19199 0.44506,1.50096 1.13356,2.90898 1.15421,2.36098 3.17164,7.16845 4.18519,9.97481 0.27452,0.76013 1.03673,1.70494 2.17573,2.6944 7.35165,6.38625 11.3778,10.78349 14.15754,15.46161 1.6438,2.76659 3.30487,6.13842 3.12426,6.34254 -0.0488,0.0552 -0.90196,-0.99286 -1.89704,-2.32876 -2.51284,-3.37351 -6.53446,-7.48009 -10.57424,-10.80141 -3.25253,-2.6743 -8.09235,-6.04318 -8.68423,-6.04318 -0.15177,0 -0.81992,-1.36338 -1.48484,-3.0282 -1.49391,-3.74041 -4.07725,-8.6754 -6.29068,-12.02276 -1.76375,-2.66756 -5.81824,-7.44225 -7.35629,-8.66339 l -0.90871,-0.72328 -0.98365,2.44006 c -1.23954,3.07691 -3.15529,9.81045 -4.35147,15.28676 l -0.92276,4.22042 -1.61834,0.92463 c -2.57453,1.47014 -10.57592,6.59093 -12.6001,8.06462 -3.62467,2.63942 -5.02532,4.95408 -5.06814,8.36665 l -0.0234,1.85985 -3.951,2.46655 c -4.30002,2.68141 -13.04092,8.37863 -14.9468,9.744316 -0.65652,0.47044 -1.18815,1.10056 -1.1874,1.40416 0.003,0.81325 1.83983,4.73605 3.12425,6.66843 1.49741,2.25238 2.50282,2.91028 4.46157,2.91164 h 1.56681 l 0.95321,1.60288 c 0.59676,1.00239 1.63658,2.11634 2.77529,2.97255 1.62051,1.21851 3.98523,2.71295 4.29293,2.71295 0.0625,0 -0.056,-0.8287 -0.2623,-1.83867 -0.20626,-1.00993 -0.40933,-2.68481 -0.45201,-3.72233 l -0.0773,-1.88634 3.3608,-1.96052 c 7.04858,-4.11072 12.29727,-5.28619 15.46907,-3.46801 1.32509,0.75961 4.08599,3.90208 3.8339,4.36348 -0.0639,0.11706 -1.03063,0.52389 -2.14765,0.90608 -3.54175,1.21185 -6.05256,2.67883 -10.24168,5.98224 -1.3077,1.0314 -1.6313,1.01446 -3.04462,-0.16691 -0.49118,-0.41062 -0.94917,-0.6401 -1.01644,-0.50868 -0.0672,0.1314 -0.20765,1.03305 -0.31149,2.00292 -0.24522,2.29133 -0.96949,3.61665 -2.23898,4.0906 -1.15718,0.43203 -1.13735,0.37395 -0.55739,1.64261 1.30684,2.85873 4.3127,5.24771 6.99562,5.56097 1.48048,0.17286 1.4818,0.17182 4.19456,-2.09034 8.42821,-7.0283 14.77016,-8.27708 18.75026,-3.69583 3.1925,3.67466 5.39308,10.035 6.42885,18.5799 0.16545,1.36495 0.42235,1.7278 4.15709,5.89217 8.75225,9.75855 15.48289,15.74739 25.02922,22.27574 2.28761,1.5644 4.352841,2.8467 4.590371,2.84807 1.02891,0.007 9.80967,-6.29227 14.69151,-10.53914 4.41115,-3.83739 9.08146,-8.46479 14.25123,-14.12898 7.16418,-7.84931 9.154,-9.13264 13.73128,-8.84355 4.30325,0.27178 8.97317,2.71598 14.18797,7.42614 1.42476,1.28687 2.89541,2.42657 3.26947,2.53277 2.37527,0.67437 6.42136,-1.33968 7.52025,-3.74352 0.41445,-0.9066 1.23658,-4.04167 1.23658,-4.71585 0,-0.16609 -0.47154,-0.0177 -1.04688,0.33116 -0.57537,0.34884 -1.5116,0.63585 -2.07973,0.63585 -1.09547,0 -1.5627,-0.35031 -4.4592,-3.33023 -0.8603,-0.88505 -2.65236,-2.44408 -3.98143,-3.46536 -1.3291,-1.0213 -2.35205,-1.97416 -2.27413,-2.11683 0.2412,-0.44149 2.95576,-1.22666 4.24142,-1.22666 3.22638,0 7.46789,1.62211 10.94898,4.18598 1.42823,1.05195 1.74217,1.42911 1.63003,1.96319 -0.28509,1.3577 -0.51648,3.67199 -0.36771,3.67199 0.0848,0 1.44156,-0.71307 3.01654,-1.58431 1.57497,-0.87128 3.07639,-1.58431 3.33505,-1.58431 0.25864,0 1.52908,-0.72042 2.82446,-1.60023 3.46353,-2.35226 5.42895,-4.65291 5.87147,-6.87241 0.20189,-1.01266 0.13632,-1.23042 -0.59722,-2.00556 -1.03137,-1.08987 -10.74822,-8.48304 -14.1224,-10.74576 -1.38635,-0.92967 -2.56453,-1.72814 -2.61839,-1.77506 -0.0538,-0.0469 0.0424,-0.56479 0.21312,-1.14984 0.47784,-1.63789 -0.22386,-3.89341 -1.71669,-5.52124 -1.15099,-1.2551 -8.47266,-7.94371 -11.22064,-10.250376 -0.72657,-0.60988 -1.37065,-1.39476 -1.43098,-1.74326 -0.0604,-0.34826 -0.31381,-2.37988 -0.56443,-4.51451 -0.25062,-2.13463 -0.90481,-5.55612 -1.45205,-7.60363 -0.99491,-3.72259 -3.3034,-9.25891 -3.96505,-9.50587 -0.8031,-0.29976 -10.16085,11.49418 -13.12236,16.5399 l -0.99536,1.69558 -2.28816,0.21725 c -7.61255,0.71651 -17.38693,3.88389 -22.31481,7.232746 l -1.54105,1.04649 -0.22483,2.04002 c -0.12398,1.12209 -0.16283,4.09191 -0.0866,6.59951 0.0797,2.62092 0.0338,4.44086 -0.10772,4.27871 -0.31486,-0.36096 -1.4682,-4.881 -2.13358,-8.36135 -0.9584,-5.01259 -0.60439,-16.736556 0.55974,-18.537536 0.29133,-0.45071 0.6722,-0.46802 3.33504,-0.1616 3.32701,0.38283 6.6404,1.36701 10.18782,3.02821 2.67813,1.25411 3.96018,1.35907 5.98854,0.48748 2.98406,-1.28267 5.02341,-4.17495 5.47097,-7.7573 0.18035,-1.44349 0.15566,-1.53905 -0.33491,-1.30084 -0.29075,0.1412 -1.23228,0.47663 -2.09377,0.74447 l -1.56681,0.48748 -2.77529,-1.92872 c -4.60444,-3.19874 -8.86489,-5.3247 -11.94901,-5.96369 -0.57937,-0.12005 -1.12372,-0.34557 -1.2085,-0.50075 -0.0848,-0.15517 0.5292,-1.05427 1.36307,-1.99759 1.13756,-1.28686 1.88726,-1.8413 3.00716,-2.21751 1.86644,-0.62701 5.70378,-0.64973 8.43832,-0.0503 2.29506,0.50285 6.91292,2.25644 7.4359,2.82421 0.32315,0.35082 0.16482,2.82278 -0.363,5.67492 -0.0887,0.47921 -0.04,0.87163 0.10769,0.87163 0.33868,0 2.89106,-1.74998 4.51075,-3.09444 0.86093,-0.71468 1.54258,-1.0253 2.26237,-1.0253 1.38207,0 3.18977,-1.38993 5.44991,-4.19129 3.10108,-3.84347 4.74443,-8.37903 3.77768,-10.42255 -0.40628,-0.85873 -1.27021,-1.24625 -11.60239,-5.18478 -4.92928,-1.87871 -9.16597,-3.53333 -9.41494,-3.67729 -0.2823,-0.16321 -0.52635,-0.88113 -0.6464,-1.9049 -0.4838,-4.12561 -2.08393,-5.6057 -10.24636,-9.47673 -3.43015,-1.62674 -12.22363,-5.06291 -12.95607,-5.06291 -0.21997,0 -0.69184,-1.12892 -1.15931,-2.77123 -1.13311,-3.98063 -2.95309,-8.92576 -4.894851,-13.30769 -2.05095,-4.62815 -4.44651,-9.26744 -4.78709,-9.26744 z m 22.438931,6.22069 c -0.38062,0.0588 -1.14004,1.10546 -3.24839,4.23632 -3.89852,5.789 -6.92962,11.52009 -6.37967,12.06249 0.11289,0.11136 1.64298,0.75122 3.40062,1.4227 1.75767,0.67152 4.3425,1.8805 5.74263,2.68645 1.40015,0.80595 2.63863,1.48932 2.75424,1.51807 0.47072,0.11722 0.32318,-8.64956 -0.22016,-13.09573 -0.39298,-3.21592 -1.30609,-7.68461 -1.75885,-8.5998 -0.0786,-0.159 -0.16356,-0.25012 -0.29042,-0.2305 z m -22.972921,9.62245 c 0.1088,0 0.26755,0.53345 0.35365,1.18691 0.80635,6.1199 1.00356,7.80698 1.12651,9.64099 l 0.14053,2.11684 -1.52232,0.97232 c -0.83809,0.53505 -1.65452,0.9723 -1.81271,0.9723 -0.16914,0 -0.23229,-0.48829 -0.15459,-1.18691 0.0727,-0.65347 0.20143,-2.0436 0.28573,-3.08914 0.25121,-3.1149 1.36994,-10.61331 1.5832,-10.61331 z m 14.410491,22.7076 1.52934,0.204 c 3.44031,0.46023 8.95835,2.4616 10.49461,3.80447 0.53757,0.4699 0.49601,0.52055 -1.0305,1.28759 -2.0432,1.02665 -4.02075,1.2957 -5.13136,0.69943 -1.27225,-0.68301 -3.83763,-3.10361 -4.9089,-4.63372 z m -47.238631,9.87679 c 0.15659,0.11611 0.41981,0.73552 0.99067,2.10888 0.57947,1.39405 1.36117,3.88702 1.73544,5.54244 0.45502,2.01249 0.65304,3.67083 0.59956,5.00198 l -0.0796,1.98968 -1.89001,-2.15659 -1.89001,-2.15657 0.0328,-4.42706 c 0.0183,-2.43521 0.12479,-4.85543 0.23655,-5.37819 0.0489,-0.2289 0.0882,-0.39702 0.13584,-0.48218 0.0357,-0.0639 0.0766,-0.0811 0.12881,-0.0423 z m -11.17847,21.44121 c 0,0.40535 -3.92641,6.38556 -4.5248,6.89096 -0.54826,0.46302 -1.37233,0.64283 -3.55521,0.7789 -1.86526,0.11626 -2.84321,0.066 -2.84321,-0.14835 0,-0.75941 3.73422,-4.2277 5.70752,-5.30136 2.07428,-1.12875 5.2157,-2.46608 5.2157,-2.22015 z m 99.728071,6.80618 c 0.20258,0 0.24001,0.84339 0.11942,2.61226 -0.26803,3.93185 -0.65509,5.88444 -1.20613,6.06702 -0.91211,0.30282 -2.43866,0.47622 -2.76594,0.31526 -0.43617,-0.21448 0.942,-3.88955 2.44039,-6.5121 0.61209,-1.07135 1.11247,-2.06761 1.11247,-2.21485 0,-0.14726 0.13517,-0.26759 0.29977,-0.26759 z M 72.469999,108.21076 c 0.29711,0 4.30298,6.47762 5.19226,8.39581 1.97564,4.26137 2.53244,6.7379 2.68864,11.96182 0.13109,4.38401 -0.004,5.80741 -0.36067,3.80182 -1.13577,-6.38486 -2.60941,-11.35192 -5.73327,-19.32703 -1.04063,-2.65739 -1.84476,-4.83242 -1.78696,-4.83242 z m 82.694521,0.0769 c 0.0719,-0.0137 0.19209,0.0184 0.35131,0.0689 3.78195,1.19927 9.92872,6.54359 8.61162,7.48706 -0.50605,0.36252 -2.33642,0.30982 -3.72616,-0.10597 -1.47911,-0.44236 -3.14416,-2.40137 -4.46858,-5.26161 -0.78015,-1.68477 -0.98394,-2.14706 -0.76819,-2.18837 z m -24.05493,21.15242 c 0.0902,0 -1.80117,2.24425 -4.20158,4.98874 -2.40044,2.7445 -5.30311,6.27808 -6.45228,7.85268 -1.14916,1.57462 -2.4338,3.35724 -2.85259,3.96079 l -0.76115,1.09682 0.51757,-1.75647 c 1.16848,-3.97402 3.15146,-7.13737 6.64198,-10.58946 2.07716,-2.05422 6.55672,-5.55303 7.10805,-5.55303 z m 83.95456,58.66464 c -0.0235,0.2711 -0.11081,0.53512 -0.23657,0.78684 0.39891,-0.12384 0.64209,-0.20306 0.77054,-0.24374 -0.1851,-0.17334 -0.33459,-0.38977 -0.53397,-0.5431 z M 40.939319,210.78838 c 0.11476,0.0108 0.22955,0.0207 0.34429,0.0318 -0.006,-0.0136 -0.008,-0.0185 -0.014,-0.0318 -0.11007,-3.7e-4 -0.22016,3.7e-4 -0.33022,0 z m 28.83266,2.1036 v 0.0583 c 0.46201,0.0177 0.92443,0.0209 1.38648,0.0371 -0.012,-0.0276 -0.0173,-0.0569 -0.0281,-0.0849 -0.45278,-0.003 -0.90559,-0.007 -1.35836,-0.0108 z m -70.15064008,0.72328 c 0.18197,0.0137 0.3638,0.0296 0.54569,0.045 0.003,-0.015 0.003,-0.0301 0.005,-0.045 z" />
  <rect
     style="fill:#800000"
     id="rect1"
     width="475.26312"
     height="26.092876"
     x="14.910215"
     y="205.94734"
     rx="48" />
</svg>
