<?xml version="1.0" encoding="UTF-8" standalone="no"?>
<svg
   width="512"
   height="512"
   viewBox="0 0 512 512"
   role="img"
   aria-label="Cerberus logo"
   version="1.1"
   id="svg5"
   sodipodi:docname="cerberus_team.svg"
   inkscape:version="1.3 (0e150ed6c4, 2023-07-21)"
   xml:space="preserve"
   xmlns:inkscape="http://www.inkscape.org/namespaces/inkscape"
   xmlns:sodipodi="http://sodipodi.sourceforge.net/DTD/sodipodi-0.dtd"
   xmlns="http://www.w3.org/2000/svg"
   xmlns:svg="http://www.w3.org/2000/svg"><sodipodi:namedview
     id="namedview5"
     pagecolor="#ffffff"
     bordercolor="#000000"
     borderopacity="0.25"
     inkscape:showpageshadow="2"
     inkscape:pageopacity="0.0"
     inkscape:pagecheckerboard="0"
     inkscape:deskcolor="#d1d1d1"
     inkscape:zoom="1.0730898"
     inkscape:cx="141.1811"
     inkscape:cy="253.00772"
     inkscape:window-width="1920"
     inkscape:window-height="991"
     inkscape:window-x="357"
     inkscape:window-y="1341"
     inkscape:window-maximized="1"
     inkscape:current-layer="svg5" /><defs
     id="defs2"><linearGradient
       id="g"
       x1="0"
       x2="1"
       y1="0"
       y2="1"><stop
         offset="0%"
         stop-color="#0b5bd7"
         id="stop1" /><stop
         offset="100%"
         stop-color="#072b80"
         id="stop2" /></linearGradient></defs><ellipse
     style="opacity:1;fill:#800000;fill-opacity:1"
     id="path3"
     cx="257.66714"
     cy="261.86066"
     rx="225.05106"
     ry="216.19812" /><rect
     width="100%"
     height="100%"
     rx="48"
     fill="#070708"
     id="rect2"
     style="opacity:1" /><path
     style="fill:#800000;stroke-width:0.713609"
     d="m 199.57182,432.76197 c 2.60618,-11.23015 33.12622,-148.24643 33.12622,-148.7164 0,-0.33555 -15.23555,-0.6101 -33.85679,-0.6101 -25.48457,0 -33.85676,-0.28611 -33.85676,-1.15704 0,-0.63636 7.51342,-46.51146 16.69649,-101.94466 9.18307,-55.4332 16.69649,-101.247672 16.69649,-101.80993 0,-0.704141 23.8161,-1.022293 76.52559,-1.022293 42.08907,0 76.52558,0.220783 76.52558,0.490632 0,0.269842 -15.23555,32.549531 -33.85676,71.732641 -18.62124,39.1831 -33.85679,71.46279 -33.85679,71.73263 0,0.26986 16.90521,0.49064 37.56711,0.49064 20.66191,0 37.56711,0.23274 37.56711,0.51719 0,0.44377 -151.0995,201.69408 -157.52518,209.8087 -2.25546,2.84828 -2.30314,2.86156 -1.75231,0.48799 z"
     id="path1" /></svg>
