<?xml version="1.0" encoding="UTF-8" standalone="no"?>
<svg
   width="512"
   height="512"
   viewBox="0 0 512 512"
   role="img"
   aria-label="Cerberus logo"
   version="1.1"
   id="svg5"
   sodipodi:docname="logo.svg"
   inkscape:version="1.3 (0e150ed6c4, 2023-07-21)"
   xmlns:inkscape="http://www.inkscape.org/namespaces/inkscape"
   xmlns:sodipodi="http://sodipodi.sourceforge.net/DTD/sodipodi-0.dtd"
   xmlns="http://www.w3.org/2000/svg"
   xmlns:svg="http://www.w3.org/2000/svg">
  <sodipodi:namedview
     id="namedview5"
     pagecolor="#ffffff"
     bordercolor="#000000"
     borderopacity="0.25"
     inkscape:showpageshadow="2"
     inkscape:pageopacity="0.0"
     inkscape:pagecheckerboard="0"
     inkscape:deskcolor="#d1d1d1"
     inkscape:zoom="1.0730898"
     inkscape:cx="141.1811"
     inkscape:cy="253.00772"
     inkscape:window-width="1920"
     inkscape:window-height="991"
     inkscape:window-x="357"
     inkscape:window-y="1341"
     inkscape:window-maximized="1"
     inkscape:current-layer="svg5" />
  <defs
     id="defs2">
    <linearGradient
       id="g"
       x1="0"
       x2="1"
       y1="0"
       y2="1">
      <stop
         offset="0%"
         stop-color="#0b5bd7"
         id="stop1" />
      <stop
         offset="100%"
         stop-color="#072b80"
         id="stop2" />
    </linearGradient>
  </defs>
  <rect
     width="100%"
     height="100%"
     rx="48"
     fill="#070708"
     id="rect2" />
  <path
     id="path17"
     style="fill:#800000;fill-opacity:1;stroke-width:3.45491"
     d="m 238.29746,32.693773 c -2.42126,0 -22.93489,40.247527 -31.20916,61.23069 l -5.53329,14.022177 -11.1678,10.18939 c -10.04099,9.15587 -19.50517,19.12354 -20.41925,21.50564 -0.18766,0.48902 1.28233,3.82296 3.26604,7.40921 3.32557,6.01344 9.13826,18.2581 12.05853,25.40593 0.79096,1.93606 2.98707,4.34249 6.26881,6.86267 21.18184,16.26583 32.78213,27.46564 40.79121,39.38086 4.73616,7.04653 9.52211,15.63461 9.00172,16.15451 -0.1406,0.14061 -2.59875,-2.52884 -5.4658,-5.93139 -7.2401,-8.59236 -18.82735,-19.05186 -30.46691,-27.51127 -9.37129,-6.81149 -23.31597,-15.39205 -25.02132,-15.39205 -0.43728,0 -2.36236,-3.47254 -4.27815,-7.71284 -4.30432,-9.52686 -11.74754,-22.09634 -18.12494,-30.6221 -5.08178,-6.7943 -16.76373,-18.95547 -21.19523,-22.06571 l -2.6182,-1.84221 -2.83412,6.21485 c -3.5714,7.83693 -9.09114,24.98731 -12.53763,38.93551 l -2.65869,10.74945 -4.66282,2.35505 c -7.41783,3.74447 -30.471701,16.78715 -36.303856,20.54066 -10.443515,6.72263 -14.479146,12.61808 -14.602495,21.30994 l -0.0674,4.73705 -11.383767,6.28232 c -12.389382,6.82958 -37.573972,21.34045 -43.0652641,24.81888 -1.891599,1.1982 -3.4233519,2.80312 -3.4211855,3.5764 0.00798,2.07132 5.3009964,12.06273 9.0017066,16.98454 4.314388,5.73682 7.211227,7.41251 12.854836,7.41596 h 4.514363 l 2.7464,4.08254 c 1.719407,2.55311 4.715386,5.39036 7.996281,7.57112 4.669081,3.10356 11.482378,6.90991 12.368946,6.90991 0.179989,0 -0.161487,-2.1107 -0.755765,-4.6831 -0.594282,-2.57232 -1.179362,-6.83825 -1.302342,-9.48082 l -0.222806,-4.80451 9.683258,-4.99346 c 20.30864,-10.47005 35.43136,-13.46399 44.57005,-8.83306 3.81791,1.93472 11.7727,9.93863 11.04638,11.11383 -0.1842,0.29814 -2.96948,1.33433 -6.18788,2.30779 -10.204641,3.08658 -17.438878,6.823 -29.508702,15.23682 -3.767814,2.62698 -4.70016,2.58382 -8.772285,-0.42514 -1.415198,-1.04584 -2.734771,-1.63034 -2.928583,-1.29559 -0.193731,0.33467 -0.598297,2.63118 -0.897486,5.10144 -0.706527,5.83605 -2.793339,9.21164 -6.45102,10.41881 -3.334125,1.10036 -3.276983,0.95245 -1.605996,4.18372 3.765331,7.28121 12.425908,13.36597 20.156042,14.16386 4.265612,0.44028 4.269404,0.43763 12.08553,-5.32412 24.28366,-17.90115 42.5563,-21.0818 54.02391,-9.41332 9.19835,9.3594 15.53876,25.55925 18.52305,47.32318 0.4767,3.47654 1.2169,4.40071 11.97755,15.0074 25.2173,24.85512 44.60988,40.10876 72.1151,56.73652 6.59116,3.98453 12.54156,7.25057 13.22594,7.25406 2.96453,0.0184 28.26399,-16.02646 42.32971,-26.84329 12.70958,-9.77386 26.16585,-21.55989 41.06116,-35.98663 20.6417,-19.99228 26.37486,-23.26093 39.56308,-22.52461 12.39868,0.69224 25.85383,6.91764 40.87889,18.91445 4.10507,3.27767 8.34236,6.18049 9.42012,6.45099 6.84372,1.71762 18.50146,-3.41218 21.66762,-9.53477 1.19412,-2.30914 3.56288,-10.29417 3.56288,-12.01132 0,-0.42304 -1.35862,-0.0452 -3.01633,0.84346 -1.65776,0.8885 -4.35525,1.61951 -5.99217,1.61951 -3.15632,0 -4.50253,-0.89224 -12.84802,-8.48212 -2.47872,-2.25423 -7.64207,-6.2251 -11.47145,-8.82629 -3.82944,-2.60128 -6.7768,-5.02822 -6.55229,-5.3916 0.69496,-1.12447 8.51625,-3.1243 12.22052,-3.1243 9.29598,0 21.51676,4.13152 31.5466,10.66173 4.11507,2.67931 5.01961,3.63995 4.69651,5.00025 -0.82141,3.45808 -1.48809,9.35259 -1.05945,9.35259 0.24421,0 4.15346,-1.81618 8.69136,-4.03526 4.53784,-2.21915 8.86381,-4.03524 9.60906,-4.03524 0.7452,0 4.40563,-1.83491 8.13795,-4.07579 9.97925,-5.99124 15.64208,-11.85101 16.91707,-17.50411 0.5817,-2.57925 0.39277,-3.13387 -1.72073,-5.10816 -2.97161,-2.77592 -30.96814,-21.60639 -40.68997,-27.36956 -3.99439,-2.36787 -7.389,-4.40159 -7.54419,-4.5211 -0.15514,-0.11943 0.12212,-1.43851 0.61404,-2.92864 1.37678,-4.17172 -0.64499,-9.91656 -4.94618,-14.06266 -3.31627,-3.19674 -24.41173,-20.23267 -32.32933,-26.10777 -2.09341,-1.55338 -3.94915,-3.55247 -4.12298,-4.44012 -0.17392,-0.88702 -0.90415,-6.06157 -1.62627,-11.49848 -0.72209,-5.43692 -2.60696,-14.15149 -4.18368,-19.36651 -2.86658,-9.48147 -9.51787,-23.58253 -11.42424,-24.21155 -2.31393,-0.76348 -29.27583,29.27577 -37.80864,42.12728 l -2.86786,4.31866 -6.59273,0.55333 c -21.93356,1.82495 -50.09586,9.89231 -64.29425,18.42187 l -4.44012,2.66541 -0.64779,5.19594 c -0.35723,2.85797 -0.46916,10.42215 -0.24951,16.80903 0.22968,6.6755 0.0973,11.31091 -0.31036,10.89791 -0.9072,-0.91937 -4.23024,-12.43195 -6.14737,-21.29644 -2.76138,-12.76711 -1.74137,-42.62815 1.61276,-47.21526 0.83937,-1.14796 1.93675,-1.19206 9.60903,-0.41161 9.58589,0.97508 19.13255,3.48181 29.35351,7.71288 7.71634,3.19424 11.41021,3.46158 17.2544,1.24162 8.59779,-3.26697 14.47365,-10.63363 15.76317,-19.7579 0.51962,-3.6766 0.4485,-3.91999 -0.96496,-3.31325 -0.83771,0.35964 -3.5505,1.21398 -6.03266,1.89617 l -4.51433,1.2416 -7.99628,-4.91246 c -13.26646,-8.14723 -25.54185,-13.56206 -34.42791,-15.18957 -1.6693,-0.30576 -3.23772,-0.88018 -3.48199,-1.27541 -0.24421,-0.39523 1.52476,-2.68524 3.92734,-5.08789 3.27758,-3.27763 5.43765,-4.6898 8.66434,-5.64802 5.37764,-1.59699 16.43392,-1.65487 24.31279,-0.12819 6.6126,1.28076 19.91776,5.74717 21.4246,7.19329 0.93105,0.89355 0.47486,7.18965 -1.0459,14.45407 -0.25557,1.22055 -0.11527,2.22005 0.31028,2.22005 0.97582,0 8.32983,-4.45721 12.99652,-7.88156 2.48055,-1.82029 4.44456,-2.61145 6.51845,-2.61145 3.98205,0 9.19047,-3.54017 15.70247,-10.67524 8.93494,-9.78937 13.66983,-21.34149 10.88439,-26.54633 -1.17058,-2.1872 -3.65977,-3.17423 -33.42924,-13.2057 -14.20241,-4.78508 -26.40931,-8.99941 -27.12667,-9.36609 -0.81335,-0.41569 -1.51652,-2.24424 -1.86242,-4.85178 -1.39395,-10.50797 -6.0043,-14.27777 -29.52218,-24.13732 -9.88309,-4.14334 -35.21918,-12.895277 -37.32951,-12.895277 -0.63379,0 -1.99335,-2.875375 -3.34023,-7.058347 -3.26477,-10.138702 -8.50855,-22.734001 -14.10324,-33.89483 -5.90925,-11.787935 -12.81143,-23.60423 -13.79273,-23.60423 z m 64.65187,15.844156 c -1.09666,0.149858 -3.28473,2.815594 -9.35939,10.789936 -11.23256,14.74464 -19.96586,29.34177 -18.38133,30.723277 0.32525,0.283639 4.7338,1.913344 9.79797,3.62363 5.06429,1.710351 12.51177,4.789654 16.54589,6.842398 4.03416,2.05277 7.60252,3.79332 7.93561,3.86655 1.35627,0.29855 0.93115,-22.030524 -0.63433,-33.354948 -1.13226,-8.190969 -3.76314,-19.57278 -5.06765,-21.903779 -0.2265,-0.404962 -0.47127,-0.637044 -0.83677,-0.587064 z m -66.19042,24.50846 c 0.31349,0 0.77088,1.358686 1.01895,3.02307 2.32329,15.587439 2.89148,19.884435 3.24575,24.555681 l 0.40488,5.39162 -4.38615,2.4765 c -2.41473,1.36279 -4.76708,2.47645 -5.22286,2.47645 -0.48732,0 -0.66926,-1.24367 -0.4454,-3.02307 0.20932,-1.66439 0.58036,-5.20506 0.82325,-7.86805 0.72381,-7.933696 3.94713,-27.032201 4.56158,-27.032201 z m 41.52002,57.836461 4.40639,0.5196 c 9.91236,1.17221 25.81114,6.2697 30.23746,9.69001 1.54886,1.19683 1.42911,1.32584 -2.96912,3.27949 -5.88693,2.61491 -11.58474,3.30016 -14.78467,1.78146 -3.66565,-1.73962 -11.0571,-7.90493 -14.14368,-11.80213 z m -136.10566,25.15627 c 0.45118,0.29574 1.20957,1.87339 2.85436,5.37133 1.66958,3.55067 3.92186,9.90028 5.00022,14.11666 1.31102,5.12583 1.88157,9.34963 1.72748,12.74008 l -0.22942,5.06773 -5.44556,-5.49285 -5.44557,-5.49281 0.0944,-11.27576 c 0.0526,-6.2025 0.35954,-12.36681 0.68155,-13.6983 0.14087,-0.583 0.25399,-1.01122 0.39138,-1.22812 0.10278,-0.16282 0.2207,-0.20669 0.37113,-0.10784 z m -32.20781,54.61096 c 0,1.03242 -11.312924,16.26409 -13.037018,17.55133 -1.579655,1.17933 -3.954015,1.63731 -10.243385,1.98388 -5.374265,0.29611 -8.191971,0.1681 -8.191971,-0.37786 0,-1.93423 10.759174,-10.76799 16.444722,-13.5026 5.976492,-2.87494 15.027652,-6.28115 15.027652,-5.65475 z m 287.34014,17.33539 c 0.58368,0 0.69153,2.14813 0.34408,6.65345 -0.77225,10.01447 -1.88747,14.98774 -3.47514,15.45277 -2.62802,0.77129 -7.02636,1.21293 -7.96933,0.80297 -1.2567,-0.54629 2.71411,-9.90672 7.03133,-16.58638 1.76358,-2.72874 3.2053,-5.26623 3.2053,-5.64125 0,-0.37507 0.38944,-0.68156 0.8637,-0.68156 z m -222.26991,51.6419 c 0.85604,0 12.3979,16.49854 14.96011,21.38421 5.69228,10.85373 7.29657,17.16147 7.74661,30.46684 0.37772,11.16612 -0.0109,14.79155 -1.03916,9.68328 -3.27243,-16.2623 -7.51835,-28.91345 -16.51891,-49.22613 -2.99831,-6.76839 -5.31519,-12.3082 -5.14865,-12.3082 z m 238.26245,0.19584 c 0.20722,-0.0349 0.55346,0.0468 1.01221,0.1755 10.89668,3.05457 28.60699,16.6666 24.8121,19.06962 -1.45804,0.92334 -6.73176,0.7891 -10.73594,-0.26991 -4.26166,-1.1267 -9.05906,-6.1163 -12.87503,-13.40138 -2.2478,-4.29111 -2.83498,-5.46858 -2.21334,-5.57378 z m -69.30793,53.87541 c 0.2598,0 -5.18962,5.71612 -12.10576,12.70636 -6.91622,6.99027 -15.2795,15.99031 -18.59055,20.00084 -3.31099,4.01057 -7.01235,8.55091 -8.21899,10.08816 l -2.19305,2.79363 1.49125,-4.47376 c 3.36666,-10.12186 9.0801,-18.17893 19.13712,-26.97145 5.98478,-5.23212 18.89145,-14.14362 20.47998,-14.14362 z m 241.89292,149.41935 c -0.0678,0.6905 -0.31926,1.36297 -0.68161,2.0041 1.14934,-0.31542 1.85002,-0.5172 2.22009,-0.62081 -0.5333,-0.4415 -0.96401,-0.99275 -1.53848,-1.38329 z m -501.6948,57.77551 c 0.330649,0.0275 0.661394,0.0528 0.991986,0.0809 -0.01862,-0.0346 -0.02385,-0.0472 -0.04038,-0.0809 -0.317157,-9.5e-4 -0.634333,9.2e-4 -0.951442,0 z m 83.07371,5.35787 v 0.14854 c 1.33116,0.0452 2.66351,0.0532 3.99478,0.0944 -0.0346,-0.0703 -0.0497,-0.14484 -0.0809,-0.21621 -1.30456,-0.008 -2.60923,-0.0184 -3.91376,-0.0275 z m -202.120577,1.8422 c 0.524293,0.0349 1.048215,0.0754 1.57227,0.11467 0.008,-0.0381 0.008,-0.0767 0.01321,-0.11467 z" />
</svg>
